<svg width="64" height="64" viewBox="0 0 64 64" fill="none" xmlns="http://www.w3.org/2000/svg">
<g clip-path="url(#clip0_5573_10321)">
<path d="M60.125 54.2942V62.1254C60.125 63.1604 59.285 64.0004 58.25 64.0004H5.75C4.715 64.0004 3.875 63.1604 3.875 62.1254V54.2929C3.875 47.4284 8.3835 41.2632 15.125 39.2929L16.9963 40.0887L18.8755 38.4612C23.7519 37.4197 31.5956 35.7931 31.6089 35.7903C31.8626 35.7366 32.1251 35.7366 32.3789 35.7903C39.0249 37.1824 42.8615 37.9827 45.1258 38.4574L47.0477 40.1124L48.875 39.2954C55.5925 41.2558 60.125 47.4067 60.125 54.2942Z" fill="#5BC998"/>
<path d="M60.125 54.2938V62.125C60.125 63.16 59.285 64 58.25 64H32V35.75C32.1215 35.75 40.1624 37.3916 45.1266 38.4523L46.9422 40.1955L48.875 39.295C55.5925 41.255 60.125 47.4063 60.125 54.2938Z" fill="#288C79"/>
<path d="M48.875 39.2959V64.0009H15.125V39.2934C16.0329 39.0251 16.5292 38.9615 18.875 38.4596V48.8759H45.125L45.1266 38.4531C47.4728 38.956 47.8269 39.0425 48.875 39.2959Z" fill="#474E8C"/>
<path d="M48.875 39.2959V64.0009H32V48.8759H45.125L45.1266 38.4531C46.5238 38.7528 48.0384 39.0454 48.875 39.2959Z" fill="#292F6D"/>
<path d="M47 22V28.25C47 36.5212 40.2712 43.25 32 43.25C23.7288 43.25 17 36.5212 17 28.25V22H47Z" fill="#FDDFCC"/>
<path d="M47 22V28.25C47 36.5136 40.2743 43.25 32 43.25V22H47Z" fill="#FBD2BE"/>
<path d="M47.9799 14.5346L46.2982 14.2105C45.402 11.392 43.6706 8.86821 41.3374 7.01021C38.6396 4.86208 35.2581 3.70633 31.7936 3.75333C31.783 3.75333 31.772 3.75333 31.7612 3.75358C28.3884 3.80558 25.0959 5.01158 22.4902 7.14958C20.2454 8.99158 18.5745 11.4662 17.7009 14.2126L16.0222 14.5341C15.1387 14.7033 14.5 15.4762 14.5 16.3757V20.7507C14.5 21.7862 15.3395 22.6257 16.375 22.6257H47.625C48.6605 22.6257 49.5 21.7862 49.5 20.7507V16.3757C49.5 15.4771 48.8622 14.7047 47.9799 14.5346Z" fill="#FEE343"/>
<path d="M49.5 16.3757V20.7507C49.5 21.7857 48.66 22.6257 47.625 22.6257H32V3.75195C38.5886 3.7562 44.3326 8.0272 46.2988 14.2107L47.98 14.5345C48.8625 14.7045 49.5 15.477 49.5 16.3757Z" fill="#FACA2C"/>
<path d="M35.75 0H28.25C27.2145 0 26.375 0.8395 26.375 1.875V11.375C26.375 12.4105 27.2145 13.25 28.25 13.25H35.75C36.7855 13.25 37.625 12.4105 37.625 11.375V1.875C37.625 0.8395 36.7855 0 35.75 0Z" fill="#FACA2C"/>
<path d="M37.625 1.875V11.375C37.625 12.41 36.785 13.25 35.75 13.25H32V0H35.75C36.785 0 37.625 0.84 37.625 1.875Z" fill="#FFA100"/>
</g>
<defs>
<clipPath id="clip0_5573_10321">
<rect width="64" height="64" fill="white"/>
</clipPath>
</defs>
</svg>
