<svg width="64" height="64" viewBox="0 0 64 64" fill="none" xmlns="http://www.w3.org/2000/svg">
<g clip-path="url(#clip0_5573_10287)">
<path d="M54.8875 24.5751L31.875 7.70013L31.7624 7.625L9.11248 24.5751C8.09986 24.725 7.38736 25.6625 7.49998 26.6751L11.25 54.7626C11.3999 55.6626 12.1875 56.3751 13.125 56.3751H50.625C51.5625 56.3751 52.3501 55.6626 52.5 54.7626L56.5 26.6751C56.6126 25.6625 55.9001 24.725 54.8875 24.5751Z" fill="#E9F5FF"/>
<path d="M56.5 26.6762L52.5 54.7637C52.3501 55.6637 51.5625 56.3762 50.625 56.3762H31.875V7.70117L54.8875 24.5762C55.9001 24.726 56.6126 25.6635 56.5 26.6762Z" fill="#D9E3ED"/>
<path d="M31.875 30.125C28.7734 30.125 26.25 27.6016 26.25 24.5C26.25 21.3984 28.7734 18.875 31.875 18.875C34.9766 18.875 37.5 21.3984 37.5 24.5C37.5 27.6016 34.9767 30.125 31.875 30.125Z" fill="#FFAF3E"/>
<path d="M31.875 18.875V30.125C34.9766 30.125 37.5 27.6016 37.5 24.5C37.5 21.3984 34.9767 18.875 31.875 18.875Z" fill="#FF9500"/>
<path d="M40.3125 39.5V56.375H22.5V43.25C22.5 40.1374 25.0124 37.625 28.125 37.625H38.4375C39.4876 37.625 40.3125 38.4499 40.3125 39.5Z" fill="#D65A2F"/>
<path d="M53.5355 18.7376L46.0355 13.38C45.543 13.0284 45.25 12.4607 45.25 11.8547V5.75C45.25 4.71362 46.0886 3.875 47.125 3.875H54.625C55.6614 3.875 56.5 4.71362 56.5 5.75V17.2124C56.5 18.7538 54.7564 19.6138 53.5355 18.7376Z" fill="#B8C7D5"/>
<path d="M40.3125 39.5V56.375H31.875V37.625H38.4375C39.4876 37.625 40.3125 38.4499 40.3125 39.5Z" fill="#A03914"/>
<path d="M61.635 19.8001L35.135 1.05012C34.16 0.374875 32.9976 0 31.8725 0C30.7475 0 29.585 0.374875 28.61 1.05012L2.36005 19.8001C-0.152326 21.6 -0.752451 25.125 1.04767 27.6375C2.84755 30.1499 6.37255 30.75 8.88505 28.9499L31.8725 12.5251L55.11 28.9499C57.66 30.7876 61.185 30.1126 62.9474 27.6375C64.7475 25.125 64.1474 21.6 61.635 19.8001Z" fill="#E9336D"/>
<path d="M62.9499 27.6375C61.1875 30.1126 57.6625 30.7876 55.1125 28.9499L31.875 12.5251V0C33 0 34.1625 0.374875 35.1375 1.05012L61.6375 19.8001C64.1499 21.6 64.75 25.125 62.9499 27.6375Z" fill="#B12E65"/>
<path d="M53.1743 38.8001L51.4492 37.9375C50.2118 37.3375 48.7493 38.2375 48.7493 39.625V43.375C48.7493 44.4251 47.9244 45.25 46.8743 45.25C46.4994 45.25 46.1618 45.1374 45.8617 44.9875C45.3368 44.6126 44.9993 44.05 44.9993 43.375C44.9993 36.1375 39.1118 30.25 31.8743 30.25C31.0867 30.25 30.4118 30.7375 30.1119 31.45C29.8494 32.2 30.0368 32.9874 30.6368 33.5125C30.6368 33.55 33.7494 36.4001 33.7494 39.625C33.7494 40.7124 33.3745 41.8749 32.662 43.1125C30.1494 47.4626 30.1869 52.675 32.6993 57.0251C35.2118 61.4125 39.7119 64 44.7368 64H45.8618C53.6618 64 59.9993 57.6625 59.9993 49.8624C59.9993 45.1374 57.3743 40.9001 53.1743 38.8001Z" fill="#FFAF3E"/>
<path d="M60.0009 49.862C60.0009 57.6621 53.6634 63.9996 45.8633 63.9996V44.9871C46.1634 45.137 46.5009 45.2496 46.8759 45.2496C47.926 45.2496 48.7509 44.4247 48.7509 43.3746V39.6246C48.7509 38.2371 50.2134 37.3371 51.4508 37.9371L53.1759 38.7997C57.3759 40.8997 60.0009 45.137 60.0009 49.862Z" fill="#FF9500"/>
</g>
<defs>
<clipPath id="clip0_5573_10287">
<rect width="64" height="64" fill="white"/>
</clipPath>
</defs>
</svg>
