<svg width="64" height="64" viewBox="0 0 64 64" fill="none" xmlns="http://www.w3.org/2000/svg">
<g clip-path="url(#clip0_5573_10307)">
<path d="M36.6362 6.25H27.3672L25.4922 10.03V17.0576C25.4922 18.0931 26.3317 18.9326 27.3672 18.9326H36.6362C37.6717 18.9326 38.5112 18.0931 38.5112 17.0576V10.03L36.6362 6.25Z" fill="#D5E8FE"/>
<path d="M32 6.25V18.9325H36.6345C37.67 18.9325 38.5095 18.093 38.5095 17.0575V10.03L36.6345 6.25H32Z" fill="#B5DBFF"/>
<path d="M36.6362 0H27.3672C26.3317 0 25.4922 0.8395 25.4922 1.875V10.03H38.5112V1.875C38.5112 0.8395 37.6717 0 36.6362 0Z" fill="#97E4FD"/>
<path d="M48.5196 15.1836H15.4844C14.4489 15.1836 13.6094 16.0231 13.6094 17.0586V25.7188C13.6094 26.7543 14.4489 27.5938 15.4844 27.5938H48.5195C49.555 27.5938 50.3945 26.7543 50.3945 25.7188V17.0586C50.3946 16.0231 49.5551 15.1836 48.5196 15.1836Z" fill="#97E4FD"/>
<path d="M48.5176 15.1836H32V27.5938H48.5176C49.5531 27.5938 50.3926 26.7543 50.3926 25.7188V17.0586C50.3926 16.0231 49.5531 15.1836 48.5176 15.1836Z" fill="#7DC1FC"/>
<path d="M36.6345 0H32V10.03H38.5095V1.875C38.5095 0.8395 37.67 0 36.6345 0Z" fill="#7DC1FC"/>
<path d="M54.1275 23.8438H9.875C8.8395 23.8438 8 24.6832 8 25.7188V46.1735C8 47.209 8.8395 48.0485 9.875 48.0485H54.1275C55.163 48.0485 56.0025 47.209 56.0025 46.1735V25.7188C56.0025 24.6831 55.163 23.8438 54.1275 23.8438Z" fill="#D5E8FE"/>
<path d="M54.1263 23.8438H32V48.0485H54.1263C55.1618 48.0485 56.0013 47.209 56.0013 46.1735V25.7188C56.0013 24.6831 55.1618 23.8438 54.1263 23.8438Z" fill="#B5DBFF"/>
<path d="M31.1449 31.6766L2.04078 46.648C1.59228 46.8786 1.25578 47.2802 1.1069 47.7621C0.958151 48.2439 1.00965 48.7654 1.25003 49.2087L8.73565 63.0188C9.06353 63.6235 9.69628 64.0003 10.3842 64.0003H32.0025L34.5025 50.1501L32.0025 31.4688C31.7083 31.4689 31.414 31.5381 31.1449 31.6766Z" fill="#47568C"/>
<path d="M62.8956 47.762C62.7469 47.2801 62.4102 46.8785 61.9618 46.6479L32.8576 31.6765C32.5885 31.538 32.2943 31.4688 32 31.4688V64.0003H53.6185C54.3064 64.0003 54.939 63.6235 55.267 63.0188L62.7526 49.2087C62.9929 48.7654 63.0444 48.2439 62.8956 47.762Z" fill="#29376D"/>
</g>
<defs>
<clipPath id="clip0_5573_10307">
<rect width="64" height="64" fill="white"/>
</clipPath>
</defs>
</svg>
