<svg width="64" height="64" viewBox="0 0 64 64" fill="none" xmlns="http://www.w3.org/2000/svg">
<g clip-path="url(#clip0_5573_10405)">
<path d="M22.9296 9.22224C22.449 9.22224 21.9684 9.0385 21.6022 8.67139C20.8708 7.93829 20.8724 6.75109 21.6055 6.01987L24.2901 3.34235C25.0232 2.61113 26.2104 2.61263 26.9416 3.34573C27.6729 4.07882 27.6713 5.26603 26.9382 5.99725L24.2537 8.67476C23.8877 9.03975 23.4086 9.22224 22.9296 9.22224Z" fill="#FF674F"/>
<path d="M32.3437 11.6716C31.863 11.6716 31.3825 11.4879 31.0161 11.1208C30.2849 10.3876 30.2865 9.20049 31.0196 8.46914L33.9747 5.52189C34.708 4.79079 35.895 4.79242 36.6264 5.52539C37.3576 6.25861 37.356 7.44568 36.6229 8.17703L33.6678 11.1243C33.3018 11.4891 32.8227 11.6716 32.3437 11.6716Z" fill="#FFE645"/>
<path d="M56.7382 42.967C56.2574 42.967 55.7768 42.7832 55.4107 42.4161C54.6795 41.683 54.681 40.4958 55.4141 39.7646L58.0972 37.0884C58.8304 36.3572 60.0177 36.3587 60.7487 37.0918C61.4801 37.8249 61.4785 39.0121 60.7454 39.7433L58.0622 42.4195C57.6962 42.7845 57.2171 42.967 56.7382 42.967Z" fill="#F2472C"/>
<path d="M54.2851 33.5684C53.8044 33.5684 53.3239 33.3847 52.9575 33.0176C52.2263 32.2844 52.2279 31.0973 52.961 30.366L55.9147 27.4203C56.6479 26.6894 57.835 26.6907 58.5663 27.4238C59.2975 28.157 59.2959 29.3441 58.5628 30.0755L55.6092 33.0211C55.2432 33.386 54.7641 33.5684 54.2851 33.5684Z" fill="#FFCF2C"/>
<path d="M25.8569 64.0003C25.3772 64.0003 24.8976 63.8175 24.5315 63.4515L0.549603 39.484C0.197617 39.1322 -0.000124936 38.655 5.92219e-08 38.1574C0.000125054 37.6599 0.198117 37.1827 0.550102 36.8312L4.33895 33.0481C4.8928 32.495 5.73214 32.3446 6.44349 32.6697L17.2229 37.5994C17.4213 37.6903 17.6023 37.8149 17.7578 37.9678L25.9313 46.0061C26.0937 46.1656 26.2255 46.3534 26.3205 46.5603L31.3648 57.5446C31.6923 58.2577 31.5411 59.0993 30.9857 59.6538L27.1815 63.4522C26.8158 63.8176 26.3363 64.0003 25.8569 64.0003Z" fill="#1A82C7"/>
<path d="M24.5312 63.4506C24.8973 63.8166 25.3769 63.9995 25.8566 63.9995C26.336 63.9995 26.8154 63.8167 27.1814 63.4512L30.9857 59.6528C31.5409 59.0983 31.6922 58.2567 31.3648 57.5436L26.3205 46.5593C26.2255 46.3524 26.0936 46.1646 25.9312 46.0051L21.9283 42.0684L12.5352 51.4616L24.5312 63.4506Z" fill="#125994"/>
<path d="M55.1567 57.6229C55.0918 57.6229 55.0269 57.6196 54.9617 57.6127C54.4001 57.554 53.8948 57.2454 53.5862 56.7725L39.3352 34.9324L29.108 24.7216L7.22824 10.5014C6.75376 10.193 6.44402 9.68682 6.38515 9.12409C6.3264 8.56124 6.52489 8.00188 6.92537 7.60228L11.2183 3.31745C11.6886 2.8481 12.3719 2.66273 13.015 2.82997L41.8949 10.3444C42.2178 10.4284 42.5124 10.597 42.7483 10.8329L53.2462 21.327C53.482 21.5626 53.6505 21.8566 53.7347 22.1789L61.2631 50.9888C61.4316 51.6333 61.2454 52.3191 60.7737 52.7897L56.4807 57.0746C56.1279 57.4275 55.6505 57.6229 55.1567 57.6229Z" fill="#2698D1"/>
<path d="M39.3342 34.933L53.5854 56.7731C53.894 57.2459 54.3992 57.5546 54.9608 57.6133C55.026 57.6202 55.091 57.6234 55.1558 57.6234C55.6497 57.6234 56.127 57.4281 56.4803 57.0755L60.7732 52.7905C61.2448 52.3198 61.4312 51.6342 61.2627 50.9896L53.7343 22.1798C53.65 21.8574 53.4814 21.5633 53.2458 21.3278L47.957 16.041L34.1953 29.8023L39.3342 34.933Z" fill="#125994"/>
<path d="M11.2187 3.31756L8.89844 5.63346L40.4581 13.8451L50.236 23.6192L58.4619 55.0979L60.7744 52.7898C61.2459 52.3192 61.4323 51.6338 61.264 50.9894L53.7355 22.1789C53.6512 21.8565 53.4826 21.5624 53.247 21.3269L42.7491 10.8329C42.5131 10.597 42.2186 10.4284 41.8957 10.3444L13.0154 2.82995C12.3724 2.66271 11.6889 2.8482 11.2187 3.31756Z" fill="#125994"/>
<path d="M50.234 23.6201L58.4599 55.0988L60.7724 52.7906C61.2439 52.32 61.4303 51.6347 61.262 50.9902L53.7335 22.1798C53.6492 21.8574 53.4806 21.5633 53.245 21.3278L47.9562 16.041L45.3047 18.6925L50.234 23.6201Z" fill="#00213B"/>
<path d="M12.5884 57.4549C10.9981 57.4549 9.4478 56.8105 8.2571 55.5611C6.26705 53.473 5.98306 50.3982 7.5665 48.0841C7.58725 48.0537 7.60887 48.0241 7.63137 47.995L21.0422 30.6732C22.9304 28.2341 24.9953 25.8932 27.1797 23.7149L43.5464 7.39437C43.573 7.36774 46.3999 4.58461 49.9639 2.45057C56.4739 -1.44752 60.1286 0.0222948 62.0485 1.94147C63.3435 3.23616 63.9996 4.8731 63.9987 6.80714C63.9954 13.0831 56.7571 20.4793 56.684 20.5522L40.5437 36.6462C38.4346 38.7492 36.1721 40.7422 33.819 42.5699L16.03 56.3865C15.9765 56.428 15.9208 56.4667 15.863 56.5022C14.8245 57.1418 13.6966 57.4549 12.5884 57.4549Z" fill="#A3EFFF"/>
<path d="M12.5889 57.4545C13.6972 57.4545 14.825 57.1414 15.8636 56.5018C15.9213 56.4663 15.9771 56.4276 16.0306 56.3861L33.8196 42.5695C36.1726 40.7418 38.4352 38.7489 40.5442 36.6458L56.6842 20.5515C56.7573 20.4787 63.9956 13.0825 63.9989 6.80649C63.9999 4.87469 63.3451 3.23926 62.053 1.94531L8.34766 55.6509C9.52611 56.8398 11.0379 57.4545 12.5889 57.4545Z" fill="#6AD9EB"/>
<path d="M47.8151 3.86523C46.6251 4.71532 45.6013 5.55504 44.8555 6.20201L57.8827 19.2279C58.5255 18.4783 59.3574 17.4502 60.1991 16.2492L47.8151 3.86523Z" fill="#37A8E5"/>
<path d="M53.976 10.0234L51.3281 12.6713L57.8837 19.2263C58.5266 18.4767 59.3584 17.4486 60.2001 16.2477L53.976 10.0234Z" fill="#1A82C7"/>
</g>
<defs>
<clipPath id="clip0_5573_10405">
<rect width="64" height="64" fill="white"/>
</clipPath>
</defs>
</svg>
