<svg width="64" height="64" viewBox="0 0 64 64" fill="none" xmlns="http://www.w3.org/2000/svg">
<g clip-path="url(#clip0_5573_10354)">
<path d="M20 1.875V17.125C20 18.1605 20.8395 19 21.875 19C22.9105 19 23.75 18.1605 23.75 17.125V1.875H20Z" fill="#39326C"/>
<path d="M10 17.125C10 18.1605 10.8395 19 11.875 19C12.9105 19 13.75 18.1605 13.75 17.125V1.875H10V17.125Z" fill="#51489A"/>
<path d="M6.875 64C5.8395 64 5 63.1605 5 62.125V58.375C5 57.3395 5.8395 56.5 6.875 56.5C7.9105 56.5 8.75 57.3395 8.75 58.375V62.125C8.75 63.1605 7.9105 64 6.875 64Z" fill="#51489A"/>
<path d="M28.125 15.25H5.625C2.52338 15.25 0 17.7734 0 20.875V54.625C0 57.7266 2.52338 60.25 5.625 60.25H7.5L16.875 54.625L26.25 60.25H31.875C32.9105 60.25 33.75 59.4105 33.75 58.375V20.875C33.75 17.7734 31.2266 15.25 28.125 15.25Z" fill="#FF8859"/>
<path d="M28.125 15.25H16.875V54.625L26.25 60.25H31.875C32.9105 60.25 33.75 59.4105 33.75 58.375V20.875C33.75 17.7734 31.2266 15.25 28.125 15.25Z" fill="#FF5B5B"/>
<path d="M9.375 39C8.3395 39 7.5 38.1605 7.5 37.125V24.625C7.5 23.5895 8.3395 22.75 9.375 22.75C10.4105 22.75 11.25 23.5895 11.25 24.625V37.125C11.25 38.1605 10.4105 39 9.375 39Z" fill="#FF5B5B"/>
<path d="M24.375 39C23.3395 39 22.5 38.1605 22.5 37.125V24.625C22.5 23.5895 23.3395 22.75 24.375 22.75C25.4105 22.75 26.25 23.5895 26.25 24.625V37.125C26.25 38.1605 25.4105 39 24.375 39Z" fill="#E50058"/>
<path d="M16.875 39C15.8395 39 15 38.1605 15 37.125V24.625C15 23.5895 15.8395 22.75 16.875 22.75C17.9105 22.75 18.75 23.5895 18.75 24.625V37.125C18.75 38.1605 17.9105 39 16.875 39Z" fill="#FF5B5B"/>
<path d="M24.375 3.75H9.375C8.3395 3.75 7.5 2.9105 7.5 1.875C7.5 0.8395 8.3395 0 9.375 0H24.375C25.4105 0 26.25 0.8395 26.25 1.875C26.25 2.9105 25.4105 3.75 24.375 3.75Z" fill="#6A61B4"/>
<path d="M18.75 37.125V24.625C18.75 23.5895 17.9105 22.75 16.875 22.75V39C17.9105 39 18.75 38.1605 18.75 37.125Z" fill="#E50058"/>
<path d="M26.25 1.875C26.25 0.8395 25.4105 0 24.375 0H16.875V3.75H24.375C25.4105 3.75 26.25 2.9105 26.25 1.875Z" fill="#FFF5F5"/>
<path d="M20.625 47.125H13.125C10.0184 47.125 7.5 49.6434 7.5 52.75V60.25H26.25V52.75C26.25 49.6434 23.7316 47.125 20.625 47.125Z" fill="#FF5B5B"/>
<path d="M20.625 47.125H16.875V60.25H26.25V52.75C26.25 49.6434 23.7316 47.125 20.625 47.125Z" fill="#E50058"/>
<path d="M26.25 1.875C26.25 0.8395 25.4105 0 24.375 0H16.875V3.75H24.375C25.4105 3.75 26.25 2.9105 26.25 1.875Z" fill="#51489A"/>
<path d="M54.5625 23.375H53.3125C45.007 23.375 38.25 30.132 38.25 38.4375V44.625C38.25 45.6605 39.0895 46.5 40.125 46.5H42V38.4375C42 32.1997 47.0747 27.125 53.3125 27.125H54.5625C55.9065 27.125 57 28.2185 57 29.5625C57 30.9065 55.9065 32 54.5625 32C50.3925 32 47 35.3926 47 39.5625V46.5H48.875C49.9105 46.5 50.75 45.6605 50.75 44.625V39.5625C50.75 37.4604 52.4602 35.75 54.5625 35.75C57.9743 35.75 60.75 32.9742 60.75 29.5625C60.75 26.1507 57.9743 23.375 54.5625 23.375Z" fill="#FFF5F5"/>
<path d="M54.5633 23.375H53.3133C50.0404 23.375 47.0084 24.4249 44.5352 26.2046V31.3104C46.6112 28.7584 49.7748 27.125 53.3133 27.125H54.5633C55.9073 27.125 57.0008 28.2185 57.0008 29.5625C57.0008 30.9065 55.9073 32 54.5633 32C50.3933 32 47.0008 35.3926 47.0008 39.5625V46.5H48.8758C49.9113 46.5 50.7508 45.6605 50.7508 44.625V39.5625C50.7508 37.4604 52.461 35.75 54.5633 35.75C57.975 35.75 60.7508 32.9742 60.7508 29.5625C60.7508 26.1507 57.975 23.375 54.5633 23.375Z" fill="#E7F9FB"/>
<path d="M56.5 42.75H32.5C31.4645 42.75 30.625 43.5895 30.625 44.625V62.125C30.625 63.1605 31.4645 64 32.5 64H56.5C57.5355 64 58.375 63.1605 58.375 62.125V44.625C58.375 43.5895 57.5355 42.75 56.5 42.75Z" fill="#6A61B4"/>
<path d="M56.5008 42.75H44.5352V64H56.5008C57.5363 64 58.3758 63.1605 58.3758 62.125V44.625C58.3758 43.5895 57.5363 42.75 56.5008 42.75Z" fill="#51489A"/>
<path d="M47.125 55.25H41.875C40.8395 55.25 40 54.4105 40 53.375C40 52.3395 40.8395 51.5 41.875 51.5H47.125C48.1605 51.5 49 52.3395 49 53.375C49 54.4105 48.1605 55.25 47.125 55.25Z" fill="#51489A"/>
<path d="M29.375 42.75C26.9588 42.75 25 44.7088 25 47.125V59.625C25 62.0413 26.9588 64 29.375 64H32.5V42.75H29.375Z" fill="#51489A"/>
<path d="M59.6249 42.75H56.5V64H59.6249C62.0411 64 63.9999 62.0413 63.9999 59.625V47.125C63.9999 44.7088 62.0411 42.75 59.6249 42.75Z" fill="#39326C"/>
<path d="M47.1258 51.5H44.5352V55.25H47.1258C48.1613 55.25 49.0008 54.4105 49.0008 53.375C49.0008 52.3395 48.1613 51.5 47.1258 51.5Z" fill="#39326C"/>
</g>
<defs>
<clipPath id="clip0_5573_10354">
<rect width="64" height="64" fill="white"/>
</clipPath>
</defs>
</svg>
