<svg width="64" height="64" viewBox="0 0 64 64" fill="none" xmlns="http://www.w3.org/2000/svg">
<g clip-path="url(#clip0_5573_10334)">
<path d="M43.6354 14.3993C42.7404 14.3993 41.9483 13.7562 41.7902 12.8443C41.4947 11.1396 40.0244 9.90234 38.2943 9.90234H32.1602C31.1247 9.90234 30.2852 9.06284 30.2852 8.02734C30.2852 6.99184 31.1247 6.15234 32.1602 6.15234H38.2943C41.853 6.15234 44.877 8.69734 45.4849 12.2037C45.6618 13.2241 44.978 14.1946 43.9578 14.3715C43.8495 14.3902 43.7418 14.3993 43.6354 14.3993Z" fill="#EDE6F3"/>
<path d="M46.6841 48.2436H1.375V42.3553C1.375 35.323 6.72813 27.8891 13.7606 27.8891L24.0955 27.6676L27.3228 38.8787C27.5731 39.7246 28.3501 40.305 29.2323 40.305H36.8725C37.9723 40.305 38.8638 39.4135 38.8638 38.3137V27.5508C38.8638 22.7345 42.7681 18.8301 47.5845 18.8301L50.5278 32.7833H53.907C58.3621 32.7833 60.1138 36.0756 60.1138 40.5307L59.2536 40.5978H55.412L46.6841 48.2436Z" fill="#FF803A"/>
<path d="M61.7582 38.7609C60.9221 35.2503 57.7232 32.7822 53.9046 32.7822H50.5253L45.8775 10.748L44.1455 11.3333C39.9516 12.7504 37.2503 16.8284 37.5813 21.2428L38.8612 38.3124C38.8612 39.4122 37.9698 40.3037 36.87 40.3037H31.6719V48.2422H46.6816L55.4096 40.5965H60.2896C61.2541 40.5967 61.9816 39.6992 61.7582 38.7609Z" fill="#FF3543"/>
<path d="M60.7766 40.5977C61.4555 40.5977 61.9801 39.9913 61.8718 39.3212C61.2572 35.5162 57.9251 32.7832 53.9066 32.7832H50.5273V44.8763L55.4116 40.5977H60.7766Z" fill="#DE005E"/>
<path d="M4.71094 48.2422C4.71094 52.5019 8.16406 55.9551 12.4238 55.9551C16.6836 55.9551 20.1367 52.5019 20.1367 48.2422H4.71094Z" fill="#326B82"/>
<path d="M12.4246 57.8472C7.12869 57.8472 2.82031 53.5387 2.82031 48.2429C2.82031 47.1984 3.66706 46.3516 4.71169 46.3516C5.75631 46.3516 6.60306 47.1983 6.60306 48.2429C6.60306 51.4529 9.21456 54.0644 12.4246 54.0644C15.6346 54.0644 18.2461 51.4529 18.2461 48.2429C18.2461 47.1984 19.0928 46.3516 20.1374 46.3516C21.1819 46.3516 22.0288 47.1983 22.0288 48.2429C22.0288 53.5387 17.7204 57.8472 12.4246 57.8472Z" fill="#1D4869"/>
<path d="M26.1588 30.1222H6.49222C5.51059 30.1222 4.71484 29.3264 4.71484 28.3448V26.0358C4.71484 23.9579 6.39934 22.2734 8.47722 22.2734H20.5725C24.2825 22.2734 27.29 25.2809 27.29 28.9909C27.29 29.6158 26.7836 30.1222 26.1588 30.1222Z" fill="#122950"/>
<path d="M1.27486 49.2312C0.520233 49.2312 -0.065267 48.5795 0.00585802 47.8283C0.621733 41.331 5.49836 36.3789 12.1975 36.3789C18.8929 36.3789 24.1669 41.3255 24.8404 47.8175C24.9187 48.5724 24.3314 49.2313 23.5724 49.2313H1.27486V49.2312Z" fill="#FF3543"/>
<path d="M54.3965 55.955C58.6562 55.955 62.1093 52.5019 62.1093 48.2422C62.1093 43.9825 58.6562 40.5293 54.3965 40.5293C50.1368 40.5293 46.6836 43.9825 46.6836 48.2422C46.6836 52.5019 50.1368 55.955 54.3965 55.955Z" fill="#1D4869"/>
<path d="M54.3972 57.847C49.1015 57.847 44.793 53.5385 44.793 48.2428C44.793 42.947 49.1015 38.6387 54.3972 38.6387C59.693 38.6387 64.0015 42.947 64.0015 48.2428C64.0015 53.5385 59.693 57.847 54.3972 57.847ZM54.3972 42.4213C51.1872 42.4213 48.5757 45.0328 48.5757 48.2428C48.5757 51.4528 51.1872 54.0643 54.3972 54.0643C57.6072 54.0643 60.2187 51.4528 60.2187 48.2428C60.2188 45.0328 57.6072 42.4213 54.3972 42.4213Z" fill="#122950"/>
<path d="M54.3961 50.1476C55.4475 50.1476 56.2999 49.2952 56.2999 48.2437C56.2999 47.1922 55.4475 46.3398 54.3961 46.3398C53.3446 46.3398 52.4922 47.1922 52.4922 48.2437C52.4922 49.2952 53.3446 50.1476 54.3961 50.1476Z" fill="#122950"/>
<path d="M52.1757 17.5142H49.5129C46.7573 17.5142 44.5234 15.2803 44.5234 12.5247C44.5234 9.76903 46.7573 7.53516 49.5129 7.53516H52.1757C52.9163 7.53516 53.5168 8.13566 53.5168 8.87628V16.173C53.5168 16.9138 52.9164 17.5142 52.1757 17.5142Z" fill="#DE005E"/>
</g>
<defs>
<clipPath id="clip0_5573_10334">
<rect width="64" height="64" fill="white"/>
</clipPath>
</defs>
</svg>
