<svg width="64" height="64" viewBox="0 0 64 64" fill="none" xmlns="http://www.w3.org/2000/svg">
<g clip-path="url(#clip0_5573_10388)">
<path d="M39.6413 0.0410455C37.1731 0.0410455 34.9599 1.12994 33.4562 2.85297C32.6798 3.74263 31.299 3.74263 30.5227 2.85297C29.019 1.12994 26.8056 0.0410455 24.3376 0.0410455C19.582 0.0283129 16.1576 4.08279 16.1576 8.85455H16.1562C16.1562 8.88625 16.1577 8.91771 16.1579 8.94929C16.1848 12.6293 17.7773 15.9516 19.9436 18.7749C23.4192 23.3046 28.3694 26.5497 30.6945 27.9233C31.5075 28.4037 32.5161 28.4103 33.3354 27.9408C35.6724 26.6015 40.5711 23.418 44.0281 18.7749C46.0975 15.9955 47.6486 12.6926 47.8258 8.94929C47.837 8.71287 47.8445 8.47531 47.8445 8.23552C47.8445 3.7098 44.1719 0.0410455 39.6413 0.0410455Z" fill="#FF405C"/>
<path d="M59.9114 5.26048C57.7378 5.31653 56.0332 7.15789 56.0332 9.33218V27.11C56.0332 28.3699 55.4506 29.5591 54.455 30.3313L32.2858 47.5249C32.1175 47.6554 31.8823 47.6554 31.7142 47.5249L9.545 30.3312C8.54936 29.559 7.96678 28.3699 7.96678 27.1099V9.19437C7.96678 6.95942 6.12629 5.15437 3.87822 5.21229C1.70468 5.26834 0 7.10971 0 9.28413V28.7349C0 31.6235 0.820633 34.4526 2.36615 36.8929L13.1774 53.9622C13.836 55.002 14.1857 56.2075 14.1857 57.4383V59.4257C14.1857 60.908 15.3872 62.1095 16.8694 62.1095H46.7529C48.4436 62.1095 49.8143 60.7388 49.8143 59.048V57.4382C49.8143 56.2074 50.164 55.0019 50.8226 53.9621L61.6338 36.8928C63.1795 34.4525 64 31.6233 64 28.7348V9.24243C64 7.0076 62.1595 5.20256 59.9114 5.26048Z" fill="#FFBB9F"/>
<path d="M59.9114 5.25916C57.7377 5.31521 56.0332 7.15658 56.0332 9.33099V27.1088C56.0332 28.3688 55.4506 29.558 54.4549 30.3302L32.2859 47.5238C32.2017 47.589 32.1009 47.6216 32 47.6216V62.0861L46.7528 62.1083C48.4436 62.1083 49.8143 60.7376 49.8143 59.0468V57.437C49.8143 56.2062 50.1639 55.0007 50.8225 53.9609L61.6338 36.8917C63.1794 34.4514 63.9999 31.6223 63.9999 28.7337V9.24124C63.9999 7.00641 62.1594 5.20137 59.9114 5.25916Z" fill="#FFA27E"/>
<path d="M54.9691 25.7406C53.5319 24.2557 51.2017 24.2557 49.7644 25.7406L34.1536 40.7434C32.822 42.1195 32.0028 45.15 32.0028 47.2497L29.8711 48.868L32.0028 56.7208H32.0994C35.6464 56.7208 38.9494 54.915 40.8639 51.9292L40.8877 51.892C42.0448 50.0873 42.8698 48.0883 43.3028 45.9888C43.7818 43.6666 44.9115 41.5085 46.5846 39.78L54.9692 31.1177C56.4062 29.6328 56.4062 27.2254 54.9691 25.7406Z" fill="#FFBB9F"/>
<path d="M29.8504 40.7434L14.2397 25.7406C12.8025 24.2557 10.4723 24.2557 9.035 25.7406C7.59771 27.2254 7.59771 29.6328 9.035 31.1177L17.4195 39.78C19.0418 41.4561 20.1531 43.5357 20.6558 45.7774C21.15 47.9816 22.0037 50.0892 23.2595 51.9668L23.3474 52.0981C25.2796 54.9868 28.5258 56.7208 32.0012 56.7208V46.1247C32.0014 44.0251 31.1821 42.1195 29.8504 40.7434Z" fill="#FFD2C2"/>
<path d="M55.6674 63.9585H8.33472C7.14234 63.9585 6.17578 62.9919 6.17578 61.7996C6.17578 60.6072 7.14234 59.6406 8.33472 59.6406H55.6673C56.8597 59.6406 57.8262 60.6072 57.8262 61.7996C57.8262 62.9919 56.8597 63.9585 55.6674 63.9585Z" fill="#00DDC1"/>
<path d="M55.6663 59.6406H32V63.9585H55.6663C56.8587 63.9585 57.8252 62.9919 57.8252 61.7996C57.8251 60.6073 56.8585 59.6406 55.6663 59.6406Z" fill="#00B4BC"/>
<path d="M39.641 0.0410156C37.1728 0.0410156 34.9596 1.12991 33.4559 2.85294C33.0703 3.29471 32.5356 3.51666 32 3.51953V28.2877C32.4602 28.2929 32.9217 28.1776 33.3349 27.9408C35.672 26.6015 40.5707 23.4179 44.0276 18.7749C46.0971 15.9954 47.6482 12.6925 47.8253 8.94926C47.8366 8.71284 47.8441 8.47528 47.8441 8.23549C47.8442 3.7099 44.1716 0.0410156 39.641 0.0410156Z" fill="#E20059"/>
<path d="M35.5624 12.1594H34.006V10.6031C34.006 9.49556 33.1081 8.59766 32.0006 8.59766C30.8931 8.59766 29.9952 9.49556 29.9952 10.6031V12.1594H28.439C27.3315 12.1594 26.4336 13.0573 26.4336 14.1648C26.4336 15.2723 27.3315 16.1702 28.439 16.1702H29.9952V17.7265C29.9952 18.834 30.8931 19.7319 32.0006 19.7319C33.1081 19.7319 34.006 18.834 34.006 17.7265V16.1702H35.5624C36.6699 16.1702 37.5678 15.2723 37.5678 14.1648C37.5678 13.0573 36.6699 12.1594 35.5624 12.1594Z" fill="white"/>
<path d="M34.0054 17.7265V16.1702H35.5618C36.6693 16.1702 37.5672 15.2723 37.5672 14.1648C37.5672 13.0573 36.6693 12.1594 35.5618 12.1594H34.0054V10.6031C34.0054 9.49556 33.1075 8.59766 32 8.59766V19.7317C33.1076 19.7317 34.0054 18.834 34.0054 17.7265Z" fill="#ECEAE7"/>
</g>
<defs>
<clipPath id="clip0_5573_10388">
<rect width="64" height="64" fill="white"/>
</clipPath>
</defs>
</svg>
