<svg width="64" height="64" viewBox="0 0 64 64" fill="none" xmlns="http://www.w3.org/2000/svg">
<g clip-path="url(#clip0_5573_10300)">
<path d="M36.0166 64H27.9832C27.0376 64 26.24 63.2959 26.1227 62.3574L25.4718 57.1461C23.14 56.5426 20.9181 55.6208 18.8393 54.3945L14.6895 57.6221C13.9432 58.2029 12.8812 58.1368 12.2126 57.4679L6.53212 51.7874C5.8635 51.1188 5.79737 50.0569 6.37787 49.3105L9.60538 45.1609C8.37925 43.0827 7.4575 40.8609 6.85388 38.5283L1.64275 37.8773C0.704125 37.76 0 36.9624 0 36.0166V27.9832C0 27.0376 0.704125 26.24 1.64262 26.1227L6.85388 25.4718C7.45738 23.14 8.37925 20.9181 9.6055 18.8393L6.37787 14.6895C5.79725 13.9431 5.8635 12.8812 6.53212 12.2126L12.2126 6.53212C12.8812 5.86338 13.9432 5.79737 14.6895 6.37787L18.8391 9.60538C20.9172 8.37925 23.1391 7.4575 25.4718 6.85388L26.1227 1.64275C26.24 0.704125 27.0376 0 27.9834 0H36.0168C36.9624 0 37.76 0.704125 37.8773 1.64262L38.5283 6.85388C40.86 7.45738 43.0819 8.37925 45.1608 9.6055L49.3105 6.37787C50.0569 5.79737 51.1189 5.8635 51.7874 6.53212L57.4679 12.2126C58.1365 12.8812 58.2026 13.9431 57.6221 14.6895L54.3946 18.8391C55.6208 20.9172 56.5425 23.1391 57.1461 25.4718L62.3573 26.1227C63.2956 26.24 63.9999 27.0376 63.9999 27.9832V36.0166C63.9999 36.9622 63.2957 37.7599 62.3573 37.8771L57.146 38.5281C56.5425 40.8599 55.6206 43.0817 54.3944 45.1606L57.622 49.3104C58.2026 50.0568 58.1364 51.1186 57.4678 51.7873L51.7873 57.4678C51.1188 58.1365 50.0568 58.2025 49.3104 57.622L45.1608 54.3945C43.0826 55.6206 40.8608 56.5424 38.5281 57.146L37.8771 62.3571C37.76 63.2959 36.9624 64 36.0166 64Z" fill="#385B7A"/>
<path d="M14.6921 57.6225L18.8419 54.3949C20.9208 55.6212 23.1426 56.543 25.4744 57.1465L26.1254 62.3578C26.2426 63.2962 27.0402 64.0004 27.9859 64.0004H36.0192C36.9649 64.0004 37.7625 63.2963 37.8797 62.3578L38.5308 57.1467C40.8634 56.5429 43.0853 55.6212 45.1634 54.3952L49.313 57.6227C50.0594 58.2032 51.1214 58.1372 51.7899 57.4684L57.4704 51.7879C58.139 51.1193 58.2051 50.0574 57.6246 49.311L54.397 45.1613C55.6232 43.0824 56.5451 40.8605 57.1486 38.5288L62.3599 37.8778C63.2982 37.7605 64.0025 36.9629 64.0025 36.0173V27.9839C64.0025 27.0383 63.2984 26.2407 62.3599 26.1234L57.1488 25.4724C56.545 23.1398 55.6233 20.9179 54.3973 18.8398L57.6247 14.6902C58.2054 13.9438 58.1391 12.8819 57.4705 12.2133L54.6302 9.37305L9.375 54.6279L12.2153 57.4682C12.8839 58.1371 13.9459 58.2032 14.6921 57.6225Z" fill="#0C1638"/>
<path d="M46.5479 25.4972C46.2957 24.9344 45.7828 24.5315 45.1763 24.4199C44.5698 24.3083 43.9472 24.5019 43.5111 24.938L35.0313 33.417L31.5226 32.477L30.5824 28.9682L39.0622 20.4883C39.4983 20.052 39.6921 19.4293 39.5803 18.8227C39.4684 18.2159 39.0654 17.7032 38.5024 17.4512C36.4498 16.5323 34.2621 16.0664 32.0001 16.0664C23.2143 16.0664 16.0667 23.2142 16.0667 31.9998C16.0667 33.82 16.3683 35.5917 16.9646 37.2827L0.549187 53.6982C-0.183062 54.4304 -0.183062 55.6175 0.549187 56.3498L7.65006 63.4507C8.38231 64.1829 9.56944 64.1829 10.3017 63.4507L26.7171 47.0355C28.4086 47.6318 30.1802 47.9332 32.0001 47.9332C40.7857 47.9332 47.9334 40.7855 47.9334 31.9998C47.9334 29.7364 47.4673 27.5485 46.5479 25.4972Z" fill="#F0F7FB"/>
<path d="M32.0021 47.9329C40.7877 47.9329 47.9354 40.7853 47.9354 31.9996C47.9354 29.7362 47.4693 27.5483 46.5501 25.4969C46.2978 24.9342 45.7849 24.5313 45.1784 24.4197C44.5719 24.3081 43.9493 24.5017 43.5132 24.9378L35.0334 33.4168L31.5247 32.4768L4.10156 59.8999L7.65206 63.4504C8.38431 64.1827 9.57144 64.1827 10.3037 63.4504L26.7191 47.0353C28.4106 47.6314 30.1821 47.9329 32.0021 47.9329Z" fill="#D6E4F3"/>
</g>
<defs>
<clipPath id="clip0_5573_10300">
<rect width="64" height="64" fill="white"/>
</clipPath>
</defs>
</svg>
