<svg width="15" height="15" viewBox="0 0 15 15" fill="none" xmlns="http://www.w3.org/2000/svg">
<path d="M7.5 14C11.0899 14 14 11.0899 14 7.5C14 3.91015 11.0899 1 7.5 1C3.91015 1 1 3.91015 1 7.5C1 11.0899 3.91015 14 7.5 14Z" stroke="#7D7D7D" stroke-linecap="round" stroke-linejoin="round"/>
<path d="M7.49984 9.66667C8.99561 9.66667 10.2082 8.4541 10.2082 6.95833C10.2082 5.46256 8.99561 4.25 7.49984 4.25C6.00407 4.25 4.7915 5.46256 4.7915 6.95833C4.7915 8.4541 6.00407 9.66667 7.49984 9.66667Z" stroke="#7D7D7D" stroke-linecap="round" stroke-linejoin="round"/>
<path d="M3.15332 12.3322C3.56086 11.5294 4.18273 10.8552 4.94999 10.3843C5.71725 9.91335 6.59993 9.66406 7.5002 9.66406C8.40046 9.66406 9.28314 9.91335 10.0504 10.3843C10.8177 10.8552 11.4395 11.5294 11.8471 12.3322" stroke="#7D7D7D" stroke-linecap="round" stroke-linejoin="round"/>
</svg>
